<svg width="177" height="177" viewBox="0 0 177 177" fill="none" xmlns="http://www.w3.org/2000/svg">
<g clip-path="url(#clip0)">
<path d="M88.5 2.96191C54.9555 2.96265 24.5072 22.5696 10.6268 53.1075H23.7945C43.3542 17.3732 88.1789 4.2609 123.913 23.8206C136.272 30.5855 146.435 40.7485 153.2 53.1072H166.373C152.493 22.5696 122.044 2.96265 88.5 2.96191Z" fill="#4398D1"/>
<path d="M30.98 133.868L19.181 122.07L16.4908 119.379C15.3799 118.272 14.756 116.768 14.7564 115.2V88.5044C14.7387 76.1321 17.8488 63.9559 23.7974 53.1075H10.6268C5.56242 64.2203 2.94674 76.2921 2.95743 88.5044V116.211C2.95669 120.905 4.8213 125.408 8.14013 128.727L20.529 141.116L22.1278 142.715C24.5713 145.158 28.5335 145.158 30.977 142.715C33.4205 140.271 33.4205 136.309 30.977 133.866L30.98 133.868Z" fill="#D4D4D4"/>
<path d="M109.245 173.339L109.732 173.516C114.363 175.186 119.471 172.792 121.151 168.165L144.518 103.565C146.188 98.941 143.792 93.8387 139.168 92.1691C139.164 92.1676 139.16 92.1662 139.156 92.1647L138.672 91.9877C134.042 90.3159 128.932 92.7104 127.254 97.3385L103.886 161.953C102.222 166.577 104.622 171.674 109.245 173.339Z" fill="#D4D4D4"/>
<path d="M146.02 142.718C143.578 140.273 143.578 136.313 146.02 133.869L158.208 121.68C156.067 114.104 151.228 107.575 144.604 103.321L122.044 165.693C136.256 167.663 149.953 159.591 155.114 146.204L157.229 140.355L154.869 142.715C152.426 145.158 148.465 145.159 146.02 142.718Z" fill="#4398D1"/>
<path d="M166.373 53.1075H153.203C159.151 63.9559 162.261 76.1321 162.244 88.5044V115.2C162.243 116.764 161.622 118.264 160.515 119.371L158.208 121.68L146.02 133.868C143.577 136.312 143.577 140.274 146.02 142.718C148.463 145.161 152.426 145.161 154.869 142.718L157.229 140.358L168.86 128.73C172.179 125.41 174.044 120.907 174.043 116.211V88.5044C174.053 76.2917 171.438 64.2199 166.373 53.1075Z" fill="#D4D4D4"/>
<path d="M153.206 56.0573C152.127 56.0587 151.134 55.4717 150.616 54.5264C131.842 20.2205 88.8131 7.62951 54.5076 26.4031C42.6389 32.8981 32.8797 42.6577 26.3844 54.5264C25.6008 55.9551 23.8074 56.478 22.3786 55.6945C20.9498 54.9109 20.427 53.1175 21.2105 51.6887C41.553 14.5256 88.1704 0.890087 125.333 21.2326C138.186 28.2677 148.754 38.8363 155.79 51.6887C156.573 53.1171 156.051 54.9102 154.622 55.6937C154.188 55.9315 153.701 56.0569 153.206 56.0573Z" fill="#3570AB"/>
<path d="M67.8518 173.339L67.368 173.516C62.7377 175.187 57.628 172.793 55.9496 168.165L32.5876 103.548C30.9166 98.9255 33.3088 93.8239 37.9311 92.1529C37.9366 92.1511 37.9418 92.1488 37.9473 92.147L38.4311 91.97C43.0677 90.296 48.1837 92.6975 49.858 97.3341C49.8584 97.3345 49.8584 97.3352 49.8584 97.3356L73.2233 161.935C74.8947 166.555 72.5043 171.656 67.8839 173.327C67.8732 173.331 67.8625 173.335 67.8518 173.339Z" fill="#D4D4D4"/>
<path d="M31.0862 142.718C33.5286 140.273 33.5286 136.313 31.0862 133.868L18.8861 121.68C21.0261 114.105 25.8641 107.575 32.4874 103.321L55.0499 165.693C40.8425 167.66 27.1505 159.588 21.9922 146.204L19.8743 140.355L22.2341 142.715C24.6776 145.16 28.6409 145.161 31.0862 142.718Z" fill="#4398D1"/>
<path d="M169.057 51.8893C148.83 7.39832 96.3654 -12.2709 51.8748 7.95656C32.4021 16.8098 16.7954 32.4166 7.94213 51.8893C2.69306 63.3811 -0.0133288 75.8707 0.00731941 88.5044V116.214C-0.00669186 121.693 2.17169 126.95 6.05724 130.813L17.9801 142.738L19.5995 147.204C24.5967 160.451 37.3839 169.124 51.5393 168.867C52.1588 168.867 52.787 168.79 53.4124 168.761L53.5599 169.168C55.7899 175.331 62.5938 178.519 68.7566 176.289H68.757L69.2407 176.115C75.4016 173.894 78.5951 167.099 76.3739 160.938C76.3736 160.938 76.3732 160.936 76.3732 160.936L53.0083 96.3363C50.7613 90.1858 43.9688 87.0041 37.8053 89.2157L37.3275 89.3897C32.0902 91.2617 28.8717 96.5366 29.6021 102.05C24.5289 105.743 20.5331 110.724 18.0273 116.477C17.8252 116.081 17.7154 115.645 17.7058 115.2V88.5048C17.698 49.406 49.3871 17.704 88.4856 17.6962C127.584 17.6885 159.286 49.3776 159.293 88.476C159.293 88.4856 159.293 88.4948 159.293 88.5044V115.2C159.276 115.409 159.234 115.616 159.169 115.816C156.643 110.338 152.757 105.597 147.881 102.044C148.609 96.534 145.394 91.2632 140.161 89.3893L139.672 89.2124C133.513 87.0037 126.727 90.1858 124.486 96.333L101.119 160.932C98.8952 167.092 102.086 173.888 108.245 176.112L108.729 176.289C114.892 178.512 121.692 175.325 123.926 169.165L124.073 168.758C124.696 168.788 125.327 168.864 125.947 168.864C140.101 169.121 152.888 160.45 157.886 147.204L159.777 141.977L170.942 130.81C174.827 126.948 177.005 121.692 176.992 116.214V88.5044C177.012 75.8703 174.306 63.3811 169.057 51.8893ZM35.9558 98.0085C36.6232 96.572 37.8403 95.4643 39.3333 94.9349L39.8111 94.7608C42.9121 93.6385 46.336 95.2413 47.4598 98.3418L70.8247 162.941C71.9423 166.028 70.3465 169.436 67.26 170.553C67.2537 170.556 67.2474 170.558 67.2408 170.56L66.757 170.734C63.6572 171.851 60.2377 170.25 59.1113 167.153L58.2264 164.684L35.7493 102.542C35.211 101.064 35.2851 99.4314 35.9558 98.0085ZM31.4545 108.038L51.3328 162.968C40.647 163.091 30.8365 157.078 26.0978 147.499H26.322C26.322 147.499 26.4783 147.499 26.555 147.499C26.85 147.499 27.1154 147.443 27.3957 147.417C27.6759 147.39 27.8794 147.39 28.1213 147.349C28.5077 147.275 28.889 147.177 29.2629 147.054C29.4752 146.989 29.6876 146.948 29.8941 146.868C30.2897 146.705 30.6732 146.513 31.0416 146.296C31.2156 146.198 31.3985 146.128 31.5666 146.018C35.8282 143.27 37.0546 137.586 34.3058 133.325C33.9485 132.771 33.5326 132.257 33.0651 131.792L22.4962 121.214C24.1963 116.076 27.2994 111.516 31.4545 108.049V108.038ZM11.8063 88.5044V115.2C11.7996 117.548 12.7332 119.801 14.3991 121.456L28.8941 135.954C30.1861 137.246 30.1861 139.34 28.8941 140.632C27.6022 141.924 25.5078 141.924 24.2159 140.632L10.2282 126.639C7.45284 123.881 5.89685 120.127 5.9068 116.214V88.5044C5.88763 77.3492 8.14824 66.3076 12.5496 56.0573H18.9978C14.2638 66.2191 11.8092 77.2936 11.8063 88.5044ZM88.4996 11.8111C61.0994 11.817 35.7818 26.433 22.0743 50.1578H15.346C36.5218 9.75591 86.4403 -5.82979 126.842 15.346C141.714 23.1415 153.858 35.2848 161.653 50.1574H154.925C141.217 26.4326 115.9 11.817 88.4996 11.8111ZM110.735 170.743L110.251 170.566C107.157 169.452 105.551 166.041 106.664 162.947L130.032 98.3477C131.151 95.2497 134.57 93.6451 137.668 94.7641C137.67 94.7649 137.673 94.766 137.675 94.7667L138.164 94.9437C141.257 96.055 142.863 99.4627 141.751 102.555C141.75 102.557 141.749 102.56 141.748 102.563L122.472 155.841L119.271 164.69L118.386 167.159C117.264 170.261 113.839 171.866 110.737 170.744C110.737 170.744 110.735 170.743 110.735 170.743ZM126.168 162.967L139.203 126.924L146.031 108.046C150.088 111.432 153.147 115.857 154.881 120.848L143.949 131.783C140.36 135.381 140.36 141.205 143.949 144.803C144.422 145.271 144.945 145.687 145.509 146.042C145.695 146.16 145.89 146.239 146.081 146.337C146.461 146.549 146.855 146.735 147.261 146.891C147.491 146.977 147.724 147.033 147.96 147.098C148.34 147.21 148.726 147.298 149.117 147.36C149.367 147.396 149.615 147.413 149.866 147.431C150.07 147.431 150.267 147.49 150.456 147.49C150.645 147.49 150.813 147.449 150.993 147.437C151.173 147.425 151.288 147.455 151.421 147.437C146.698 157.046 136.874 163.088 126.168 162.967ZM171.092 116.214C171.102 120.127 169.546 123.882 166.771 126.641L155.146 138.269L152.786 140.629C151.494 141.921 149.4 141.921 148.108 140.629C146.816 139.337 146.816 137.243 148.108 135.951L162.603 121.453C164.267 119.798 165.199 117.546 165.193 115.199V88.5041C165.19 77.2932 162.736 66.2191 158.001 56.0569H164.45C168.851 66.3072 171.112 77.3489 171.092 88.5041V116.214Z" fill="black"/>
</g>
<defs>
<clipPath id="clip0">
<rect width="177" height="177" fill="white"/>
</clipPath>
</defs>
</svg>
