<svg width="19" height="24" viewBox="0 0 19 24" fill="none" xmlns="http://www.w3.org/2000/svg">
<path fill-rule="evenodd" clip-rule="evenodd" d="M11 1C11 0.447716 11.4477 0 12 0H17.6667C18.219 0 18.6667 0.447715 18.6667 1V23C18.6667 23.5523 18.219 24 17.6667 24H12C11.4477 24 11 23.5523 11 23V1Z" fill="white"/>
<path fill-rule="evenodd" clip-rule="evenodd" d="M0 1C0 0.447716 0.447715 0 1 0H6.66667C7.21895 0 7.66667 0.447715 7.66667 1V23C7.66667 23.5523 7.21895 24 6.66667 24H0.999999C0.447715 24 0 23.5523 0 23V1Z" fill="white"/>
</svg>
